<svg width="86" height="106" viewBox="0 0 86 106" fill="none" xmlns="http://www.w3.org/2000/svg">
<path d="M30.6655 105.64L0.901123 88.4576V24.6332L30.6655 41.8242V105.64Z" fill="#E0E0E0"/>
<path d="M30.6655 41.8242L73.1813 17.2705V81.0948L30.6655 105.64V41.8242Z" fill="#EBEBEB"/>
<path d="M73.1812 17.2705L30.6655 41.8242L0.901123 24.6332L43.4168 0.0879593L73.1812 17.2705Z" fill="#F5F5F5"/>
<path d="M34.9103 44.2728L68.9279 24.6332L69.7074 25.0907V48.7294L35.6982 68.3689L34.9103 67.9114V44.2728Z" fill="#E6E6E6"/>
<path d="M49.0257 41.0362L54.8125 37.698C55.5665 37.2659 56.1681 37.4608 56.1681 38.1386C56.114 38.5557 55.9632 38.9544 55.7279 39.303C55.4926 39.6516 55.1791 39.9405 54.8125 40.1466L49.0257 43.5357C48.2801 43.9678 47.67 43.7644 47.67 43.0866C47.7192 42.6624 47.8675 42.2557 48.103 41.8995C48.3385 41.5433 48.6546 41.2476 49.0257 41.0362Z" fill="#E6E6E6"/>
<path d="M34.1307 74.1897L68.1484 54.5501L68.1399 78.1888L68.9278 78.6378L34.9102 98.2774L34.1307 97.8283V74.1897Z" fill="#E0E0E0"/>
<path d="M34.9103 74.6387L68.9279 54.9991V78.6378L34.9103 98.2774V74.6387Z" fill="#F5F5F5"/>
<path d="M48.2462 70.9446L54.033 67.6064C54.7786 67.1743 55.3886 67.3692 55.3886 68.047C55.3332 68.4648 55.182 68.8642 54.9469 69.2139C54.7117 69.5637 54.399 69.8545 54.033 70.0635L48.2462 73.4017C47.4921 73.8338 46.8821 73.6389 46.8821 72.9611C46.9384 72.5425 47.0909 72.1427 47.3275 71.7928C47.5642 71.443 47.8786 71.1527 48.2462 70.9446Z" fill="#E6E6E6"/>
<path d="M34.9103 44.2728L68.9279 24.6332V48.2803L34.9103 67.9114V44.2728Z" fill="#E0E0E0"/>
<path d="M85.9324 36.317L67.318 25.5652V46.3909L85.9324 57.1427V36.317Z" fill="#E6E6E6"/>
<path d="M47.67 71.2751V41.8157L54.965 37.5879L56.1681 39.3671L77.4344 27.0903V54.0926L47.67 71.2751Z" fill="#EBEBEB"/>
<path d="M47.67 71.2751L49.7967 45.5013L79.5526 28.3188L77.4344 54.0926L47.67 71.2751Z" fill="#FAFAFA"/>
<path d="M51.9234 55.9565L35.6898 46.5858V67.4115L51.9149 76.7823L51.9234 55.9565Z" fill="#E6E6E6"/>
<path d="M51.9233 54.0926L85.9324 34.453V58.0917L51.9148 77.7312L51.9233 54.0926Z" fill="#F5F5F5"/>
<path d="M65.2508 50.407L71.0376 47.0687C71.7832 46.6366 72.3932 46.8315 72.3932 47.5093C72.3378 47.9271 72.1866 48.3265 71.9515 48.6763C71.7163 49.026 71.4036 49.3168 71.0376 49.5258L65.2508 52.864C64.4967 53.2961 63.8951 53.1013 63.8951 52.4235C63.9506 52.0056 64.1018 51.6063 64.3369 51.2565C64.572 50.9067 64.8848 50.616 65.2508 50.407Z" fill="#E6E6E6"/>
<path d="M51.9234 54.0926L50.7881 53.4402V77.0788L51.9234 77.7312V54.0926Z" fill="#E0E0E0"/>
<path d="M50.7881 53.4402L84.7973 33.8006L85.9326 34.453L51.9234 54.0926L50.7881 53.4402Z" fill="#F0F0F0"/>
</svg>
