<svg width="32" height="32" viewBox="0 0 32 32" fill="none" xmlns="http://www.w3.org/2000/svg">
<path d="M28 0C30.2091 0 32 1.83526 32 4.09916V7.40037C32 8.56076 31.5201 9.66678 30.6793 10.444L22.3533 18.1413C22.1433 18.3354 22.0234 18.6116 22.0232 18.9015L22.0159 29.9518C22.0151 31.0838 21.1191 32.0008 20.0145 32C19.8001 32 19.587 31.9643 19.3835 31.8949L11.3773 29.1604C10.5618 28.8818 10.0111 28.1004 10.0097 27.2194L9.99584 18.9014C9.99536 18.6116 9.87516 18.3355 9.66499 18.1416L1.32341 10.4443C0.480998 9.66696 0 8.55981 0 7.3981V4.09916C0 1.83526 1.79086 0 4 0L28 0ZM28 2.04958H4C2.94564 2.04958 2.08183 2.88568 2.00549 3.9462L2 4.09916V7.3981C2 7.91441 2.19002 8.40917 2.52808 8.78573L2.66171 8.9212L11.0033 16.6185C11.5812 17.1518 11.9324 17.8922 11.988 18.6815L11.9958 18.8979L12.0097 27.216L20.0159 29.9504L20.0232 18.9001C20.0237 18.103 20.3262 17.3403 20.8618 16.7701L21.0137 16.6194L29.3397 8.92221C29.7133 8.57675 29.9444 8.10142 29.9912 7.59257L30 7.40037V4.09916C30 3.01866 29.1841 2.13344 28.1493 2.0552L28 2.04958Z" fill="#BBBBBB"/>
</svg>
