<svg width="34" height="51" viewBox="0 0 34 51" fill="none" xmlns="http://www.w3.org/2000/svg">
<path d="M0.983643 30.7745C1.18699 25.8858 5.04203 15.5746 10.3713 9.42345C15.7006 3.27232 24.0716 -0.599683 29.672 1.56931C34.8742 3.59427 34.0269 10.4995 27.4352 14.829C20.8435 19.1585 10.9729 24.5471 7.838 32.3674L1.53436 41.8737L0.983643 30.7745Z" fill="#BDABFF"/>
<path opacity="0.1" d="M0.983643 30.7745C1.18699 25.8858 5.04203 15.5746 10.3713 9.42345C15.7006 3.27232 24.0716 -0.599683 29.672 1.56931C34.8742 3.59427 34.0269 10.4995 27.4352 14.829C20.8435 19.1585 10.9729 24.5471 7.838 32.3674L1.53436 41.8737L0.983643 30.7745Z" fill="black"/>
<path d="M27.6047 3.95856C21.2671 5.4328 3.03401 18.218 1.33948 36.5104" stroke="white" stroke-width="1.02594" stroke-miterlimit="10" stroke-linecap="round"/>
<path d="M2.59338 50.2022C2.88992 45.1186 7.21944 41.4585 12.9215 38.1118C19.6996 34.1466 25.5457 32.3589 27.6046 28.453C29.6635 24.5471 25.9779 20.1328 18.9879 22.4628C13.0571 24.4369 1.61056 34.5956 1.5343 41.8736L2.59338 50.2022Z" fill="#BDABFF"/>
<path d="M23.1819 25.5638C13.8196 27.7074 3.35592 36.2224 1.94946 45.1441" stroke="white" stroke-miterlimit="10" stroke-linecap="round"/>
</svg>
