<svg width="222" height="308" viewBox="0 0 222 308" fill="none" xmlns="http://www.w3.org/2000/svg">
<path d="M0.0593262 160.663V307.909L150.771 220.895V87.0353L38.703 151.732L34.8395 140.582L0.0593262 160.663Z" fill="#BDABFF"/>
<g opacity="0.1">
<path d="M0.0593262 160.663V307.909L150.771 220.895V87.0353L38.703 151.732L34.8395 140.582L0.0593262 160.663Z" fill="black"/>
</g>
<path d="M54.7923 256.497C54.3272 256.183 53.9427 255.764 53.6703 255.274C53.3979 254.783 53.2453 254.236 53.2249 253.675V69.9629C53.2583 69.3827 53.4295 68.8188 53.7241 68.3179C54.0188 67.8169 54.4285 67.3934 54.9194 67.0822L170.249 0.478818C170.73 0.176538 171.285 0.0111865 171.853 0.00054788C172.421 -0.0100908 172.982 0.134384 173.474 0.418436C173.966 0.702489 174.372 1.11537 174.647 1.61268C174.922 2.10999 175.057 2.67291 175.036 3.2409V186.936C175.001 187.516 174.829 188.079 174.535 188.58C174.24 189.081 173.831 189.505 173.341 189.817L58.0204 256.412C57.5271 256.679 56.9775 256.827 56.4165 256.841C55.8555 256.856 55.2989 256.738 54.7923 256.497Z" fill="#EBEBEB"/>
<path d="M56.3513 73.4875L103.197 42.8335L100.079 41.0373L54.894 67.1246C54.4031 67.4357 53.9934 67.8593 53.6987 68.3602C53.4041 68.8612 53.2329 69.4251 53.1995 70.0053V71.6998L56.3513 73.4875Z" fill="#EBEBEB"/>
<path d="M71.9665 78.8592L53.7164 68.3192C53.4143 68.8159 53.2451 69.3819 53.225 69.9629V253.65C53.2042 254.218 53.3386 254.781 53.6138 255.278C53.889 255.775 54.2945 256.188 54.7868 256.472C55.2791 256.756 55.8396 256.901 56.4078 256.89C56.9761 256.879 57.5307 256.714 58.012 256.412L71.9665 248.363V78.8592Z" fill="#E0E0E0"/>
<path d="M58.0206 256.412L173.367 189.817C173.857 189.505 174.266 189.081 174.561 188.58C174.855 188.079 175.027 187.516 175.062 186.936V3.24092C175.062 2.18184 174.316 1.74974 173.367 2.28351L58.0122 68.8785C57.5221 69.1925 57.1131 69.6179 56.8186 70.1199C56.5241 70.622 56.3525 71.1866 56.3176 71.7676V255.454C56.3515 256.497 57.0971 256.946 58.0206 256.412Z" fill="#E6E6E6"/>
<path d="M65.9255 114.156L93.6225 98.1683C95.4611 97.1093 96.9523 97.8633 96.9523 99.8629C96.8708 100.981 96.5268 102.063 95.9482 103.023C95.3697 103.983 94.5729 104.793 93.6225 105.387L65.9255 121.409C64.0869 122.468 62.5957 121.714 62.5957 119.714C62.6747 118.591 63.0173 117.503 63.5959 116.537C64.1744 115.571 64.9725 114.756 65.9255 114.156Z" fill="#F5F5F5"/>
<path d="M63.9259 143.429L67.5098 141.362C68.247 140.938 68.84 141.277 68.84 142.124V146.267C68.8158 146.729 68.6827 147.179 68.4515 147.579C68.2203 147.98 67.8976 148.32 67.5098 148.572L63.9259 150.639C63.1973 151.063 62.5957 150.724 62.5957 149.868V145.734C62.6219 145.272 62.7559 144.824 62.9869 144.423C63.2179 144.023 63.5395 143.683 63.9259 143.429Z" fill="#FAFAFA"/>
<path d="M73.6354 139.633L95.2915 127.128C96.2066 126.594 96.9861 126.975 96.9861 127.975C96.9424 128.537 96.766 129.08 96.4714 129.56C96.1768 130.04 95.7724 130.444 95.2915 130.737L73.6354 143.234C72.7119 143.768 71.9409 143.387 71.9409 142.387C71.9845 141.827 72.161 141.284 72.4556 140.806C72.7503 140.327 73.1547 139.925 73.6354 139.633Z" fill="#F5F5F5"/>
<path d="M63.9259 157.858L67.5098 155.782C68.247 155.359 68.84 155.706 68.84 156.553V160.696C68.8158 161.158 68.6827 161.608 68.4515 162.008C68.2203 162.409 67.8976 162.749 67.5098 163.001L63.9259 165.068C63.1973 165.492 62.5957 165.145 62.5957 164.297V160.163C62.6219 159.701 62.7559 159.252 62.9869 158.852C63.2179 158.452 63.5395 158.112 63.9259 157.858Z" fill="#FAFAFA"/>
<path d="M73.6354 154.054L95.2915 141.557C96.2066 141.023 96.9861 141.396 96.9861 142.404C96.9411 142.965 96.7641 143.508 96.4697 143.988C96.1752 144.468 95.7715 144.872 95.2915 145.166L73.6354 157.663C72.7119 158.197 71.9409 157.816 71.9409 156.816C71.9859 156.255 72.1628 155.712 72.4573 155.232C72.7518 154.752 73.1554 154.348 73.6354 154.054Z" fill="#F5F5F5"/>
<path d="M63.9259 172.279L67.5098 170.211C68.247 169.788 68.84 170.126 68.84 170.982V175.159C68.8158 175.621 68.6827 176.071 68.4515 176.471C68.2203 176.872 67.8976 177.212 67.5098 177.464L63.9259 179.531C63.1973 179.963 62.5957 179.616 62.5957 178.769V174.625C62.6154 174.157 62.7463 173.7 62.9776 173.291C63.2089 172.883 63.5339 172.536 63.9259 172.279Z" fill="#FAFAFA"/>
<path d="M73.6354 168.483L95.2915 155.977C96.2066 155.443 96.9861 155.825 96.9861 156.824C96.9417 157.387 96.7651 157.931 96.4706 158.413C96.1762 158.894 95.7722 159.299 95.2915 159.595L73.6354 172.084C72.7119 172.617 71.9409 172.245 71.9409 171.236C71.9845 170.676 72.161 170.134 72.4556 169.655C72.7503 169.176 73.1547 168.774 73.6354 168.483Z" fill="#F5F5F5"/>
<path d="M63.9259 186.741L67.5098 184.674C68.247 184.25 68.84 184.598 68.84 185.445V189.563C68.8158 190.025 68.6827 190.474 68.4515 190.875C68.2203 191.275 67.8976 191.615 67.5098 191.867L63.9259 193.935C63.1973 194.367 62.5957 194.019 62.5957 193.172V189.029C62.6245 188.571 62.7597 188.125 62.9906 187.728C63.2215 187.331 63.5417 186.993 63.9259 186.741Z" fill="#FAFAFA"/>
<path d="M73.6354 182.946L95.2915 170.44C96.2066 169.906 96.9861 170.287 96.9861 171.287C96.9417 171.85 96.7651 172.394 96.4706 172.875C96.1762 173.357 95.7722 173.762 95.2915 174.058L73.6354 186.546C72.7119 187.08 71.9409 186.707 71.9409 185.699C71.9859 185.139 72.1629 184.597 72.4574 184.119C72.7519 183.64 73.1556 183.238 73.6354 182.946Z" fill="#F5F5F5"/>
<path d="M64.2649 216.904L79.6512 208.008C80.5662 207.474 81.3457 207.855 81.3457 208.855C81.3021 209.417 81.1257 209.96 80.8311 210.44C80.5365 210.92 80.1321 211.324 79.6512 211.617L64.2394 220.522C63.3159 221.047 62.5449 220.674 62.5449 219.674C62.5914 219.109 62.7716 218.563 63.0706 218.082C63.3697 217.6 63.779 217.196 64.2649 216.904Z" fill="#F5F5F5"/>
<path d="M64.2648 224.114L95.2917 206.203C96.2067 205.669 96.9862 206.05 96.9862 207.05C96.9418 207.613 96.7652 208.157 96.4707 208.638C96.1763 209.12 95.7723 209.525 95.2917 209.821L64.2648 227.69C63.3413 228.223 62.5703 227.842 62.5703 226.842C62.6204 226.287 62.7998 225.751 63.094 225.277C63.3883 224.804 63.7892 224.405 64.2648 224.114Z" fill="#F0F0F0"/>
<path d="M64.2648 224.114L85.9209 211.592C86.8359 211.066 87.6154 211.439 87.6154 212.439C87.5704 213 87.3935 213.543 87.099 214.023C86.8046 214.503 86.4009 214.906 85.9209 215.201L64.2648 227.69C63.3413 228.223 62.5703 227.842 62.5703 226.842C62.6204 226.287 62.7998 225.751 63.094 225.277C63.3883 224.804 63.7892 224.405 64.2648 224.114Z" fill="#FAFAFA"/>
<path d="M64.2649 231.324L79.6512 222.42C80.5662 221.894 81.3457 222.267 81.3457 223.267C81.3001 223.828 81.1228 224.37 80.8284 224.85C80.534 225.33 80.1307 225.734 79.6512 226.029L64.2394 234.925C63.3159 235.459 62.5449 235.078 62.5449 234.078C62.5913 233.515 62.7716 232.971 63.0708 232.492C63.37 232.013 63.7794 231.613 64.2649 231.324Z" fill="#F5F5F5"/>
<path d="M64.2649 202.483L79.6512 193.587C80.5662 193.062 81.3457 193.435 81.3457 194.434C81.3001 194.996 81.1228 195.538 80.8284 196.018C80.534 196.498 80.1307 196.902 79.6512 197.197L64.2394 206.093C63.3159 206.627 62.5449 206.245 62.5449 205.246C62.5927 204.682 62.7735 204.138 63.0725 203.658C63.3715 203.177 63.7801 202.775 64.2649 202.483Z" fill="#F5F5F5"/>
<path d="M64.2648 209.702L95.2917 191.782C96.2067 191.257 96.9862 191.63 96.9862 192.63C96.9405 193.191 96.7633 193.733 96.4689 194.213C96.1745 194.693 95.7712 195.097 95.2917 195.392L64.2648 213.286C63.3413 213.82 62.5703 213.439 62.5703 212.439C62.6165 211.881 62.7942 211.343 63.0887 210.867C63.3832 210.391 63.7863 209.992 64.2648 209.702Z" fill="#F0F0F0"/>
<path d="M64.2648 209.702L75.2793 203.348C76.2028 202.814 76.9738 203.195 76.9738 204.195C76.9301 204.758 76.7538 205.302 76.4593 205.784C76.1647 206.265 75.7604 206.67 75.2793 206.965L64.2648 213.311C63.3413 213.845 62.5703 213.464 62.5703 212.464C62.6126 211.902 62.7884 211.358 63.0831 210.878C63.3779 210.398 63.783 209.994 64.2648 209.702Z" fill="#FAFAFA"/>
<path d="M64.2648 238.535L95.2917 220.623C96.2067 220.09 96.9862 220.471 96.9862 221.471C96.9425 222.032 96.7661 222.576 96.4715 223.056C96.177 223.536 95.7726 223.939 95.2917 224.233L64.2648 242.152C63.3413 242.678 62.5703 242.305 62.5703 241.305C62.614 240.742 62.7903 240.198 63.0849 239.716C63.3794 239.235 63.7837 238.83 64.2648 238.535Z" fill="#F0F0F0"/>
<path d="M64.2648 238.535L92.1652 222.437C93.0888 221.911 93.8598 222.284 93.8598 223.284C93.8128 223.845 93.635 224.387 93.3408 224.866C93.0465 225.346 92.6439 225.75 92.1652 226.046L64.2648 242.144C63.3413 242.669 62.5703 242.296 62.5703 241.297C62.6153 240.735 62.7922 240.193 63.0867 239.713C63.3812 239.233 63.7848 238.829 64.2648 238.535Z" fill="#FAFAFA"/>
<path d="M173.367 2.31739L103.197 42.7912V230.325L173.367 189.817C173.857 189.505 174.266 189.081 174.56 188.58C174.855 188.079 175.027 187.516 175.061 186.936V3.24091C175.036 2.18183 174.29 1.74972 173.367 2.31739Z" fill="#F5F5F5"/>
<path d="M103.196 50.0099V64.4303L96.9521 71.649H103.196V86.0694L168.783 48.2052V12.1372L103.196 50.0099Z" fill="#EBEBEB"/>
<path d="M111.779 50.5098L138.35 35.1658C139.637 34.4287 140.68 35.0302 140.68 36.513C140.637 37.3224 140.403 38.1103 139.998 38.8125C139.593 39.5148 139.029 40.1116 138.35 40.5544L111.779 55.8899C110.492 56.6355 109.449 56.0339 109.449 54.5512C109.492 53.7418 109.726 52.9539 110.131 52.2516C110.536 51.5494 111.1 50.9526 111.779 50.5098Z" fill="#FAFAFA"/>
<path d="M110.28 62.1512L161.709 32.4546C162.166 32.1919 162.556 32.3783 162.556 32.8782C162.534 33.159 162.446 33.4307 162.299 33.6708C162.151 33.9109 161.949 34.1126 161.709 34.2593L110.28 63.9559C109.822 64.2185 109.432 64.0321 109.432 63.5322C109.454 63.2514 109.543 62.9798 109.69 62.7397C109.837 62.4996 110.039 62.2979 110.28 62.1512Z" fill="#FAFAFA"/>
<path d="M110.28 67.5567L161.709 37.9025C162.166 37.6313 162.556 37.8262 162.556 38.3176C162.533 38.5994 162.445 38.872 162.298 39.1133C162.151 39.3547 161.949 39.5581 161.709 39.7071L110.28 69.3614C109.822 69.624 109.432 69.4376 109.432 68.9377C109.456 68.6574 109.545 68.3866 109.692 68.1468C109.84 67.907 110.041 67.7049 110.28 67.5567Z" fill="#FAFAFA"/>
<path d="M110.28 72.9707L161.709 43.3165C162.166 43.0538 162.556 43.2402 162.556 43.7401C162.534 44.0209 162.446 44.2926 162.299 44.5327C162.151 44.7728 161.949 44.9744 161.709 45.1211L110.28 74.8177C109.822 75.0804 109.432 74.894 109.432 74.3941C109.448 74.1059 109.533 73.8258 109.68 73.5778C109.828 73.3298 110.034 73.1215 110.28 72.9707Z" fill="#FAFAFA"/>
<path d="M112.212 88.0944L115.795 86.027C116.533 85.6034 117.134 85.9423 117.134 86.7981V90.9327C117.108 91.395 116.973 91.8445 116.74 92.2449C116.507 92.6452 116.184 92.9852 115.795 93.2372L112.212 95.3046C111.483 95.7282 110.881 95.3893 110.881 94.542V90.4328C110.902 89.9656 111.034 89.51 111.265 89.1035C111.496 88.697 111.821 88.3512 112.212 88.0944Z" fill="white"/>
<path d="M121.921 84.2986L143.577 71.793C144.492 71.2593 145.272 71.6405 145.272 72.6403C145.227 73.2029 145.051 73.7471 144.756 74.2285C144.462 74.71 144.058 75.1151 143.577 75.4108L121.921 87.891C120.998 88.4248 120.227 88.052 120.227 87.0438C120.272 86.4847 120.449 85.9443 120.743 85.4671C121.038 84.9898 121.442 84.5893 121.921 84.2986Z" fill="#E0E0E0"/>
<path d="M111.72 101.015L166.267 69.5138C166.733 69.2427 167.114 69.4376 167.114 69.929C167.094 70.2102 167.006 70.4824 166.859 70.7227C166.711 70.963 166.508 71.1644 166.267 71.3101L111.72 102.82C111.254 103.082 110.873 102.896 110.873 102.396C110.893 102.115 110.981 101.843 111.128 101.603C111.276 101.362 111.479 101.161 111.72 101.015Z" fill="#E0E0E0"/>
<path d="M111.72 106.421L166.267 74.9194C166.733 74.6568 167.114 74.8432 167.114 75.343C167.094 75.6242 167.006 75.8964 166.859 76.1367C166.711 76.377 166.508 76.5784 166.267 76.7241L111.72 108.225C111.254 108.488 110.873 108.302 110.873 107.802C110.896 107.521 110.985 107.25 111.132 107.01C111.279 106.77 111.481 106.568 111.72 106.421Z" fill="#E0E0E0"/>
<path d="M111.72 111.835L166.267 80.3335C166.733 80.0623 167.114 80.2487 167.114 80.7486C167.094 81.0298 167.006 81.302 166.859 81.5423C166.711 81.7826 166.508 81.984 166.267 82.1296L111.72 113.631C111.254 113.902 110.873 113.716 110.873 113.216C110.893 112.935 110.981 112.662 111.128 112.422C111.276 112.182 111.479 111.98 111.72 111.835Z" fill="#E0E0E0"/>
<path d="M111.72 117.257L166.267 85.7559C166.733 85.4848 167.114 85.6796 167.114 86.1795C167.091 86.46 167.002 86.7311 166.855 86.971C166.708 87.2109 166.506 87.4128 166.267 87.5606L111.72 119.062C111.254 119.324 110.873 119.138 110.873 118.638C110.893 118.357 110.981 118.085 111.128 117.845C111.276 117.604 111.479 117.403 111.72 117.257Z" fill="#E0E0E0"/>
<path d="M112.212 127.763L115.795 125.696C116.533 125.272 117.134 125.62 117.134 126.467V130.602C117.108 131.064 116.973 131.513 116.74 131.914C116.507 132.314 116.184 132.654 115.795 132.906L112.212 134.982C111.483 135.406 110.881 135.058 110.881 134.211V130.076C110.906 129.613 111.04 129.163 111.271 128.761C111.502 128.359 111.824 128.018 112.212 127.763Z" fill="white"/>
<path d="M121.921 123.968L143.577 111.462C144.492 110.937 145.272 111.309 145.272 112.309C145.226 112.87 145.049 113.413 144.755 113.893C144.46 114.373 144.057 114.776 143.577 115.071L121.921 127.577C120.998 128.102 120.227 127.729 120.227 126.73C120.272 126.168 120.449 125.626 120.743 125.146C121.038 124.666 121.441 124.262 121.921 123.968Z" fill="#E0E0E0"/>
<path d="M111.72 140.684L166.267 109.183C166.733 108.92 167.114 109.107 167.114 109.606C167.091 109.887 167.002 110.158 166.855 110.398C166.708 110.638 166.506 110.84 166.267 110.987L111.72 142.489C111.254 142.751 110.873 142.565 110.873 142.065C110.893 141.784 110.981 141.512 111.128 141.271C111.276 141.031 111.479 140.83 111.72 140.684Z" fill="#E0E0E0"/>
<path d="M111.72 146.09L166.267 114.588C166.733 114.326 167.114 114.512 167.114 115.012C167.094 115.293 167.006 115.565 166.859 115.806C166.711 116.046 166.508 116.247 166.267 116.393L111.72 147.894C111.254 148.165 110.873 147.97 110.873 147.479C110.895 147.197 110.983 146.924 111.13 146.683C111.277 146.441 111.479 146.238 111.72 146.09Z" fill="#E0E0E0"/>
<path d="M111.72 151.504L166.267 120.002C166.733 119.731 167.114 119.926 167.114 120.418C167.092 120.699 167.004 120.972 166.857 121.214C166.71 121.455 166.508 121.658 166.267 121.807L111.72 153.308C111.254 153.571 110.873 153.385 110.873 152.885C110.893 152.603 110.981 152.331 111.128 152.091C111.276 151.851 111.479 151.649 111.72 151.504Z" fill="#E0E0E0"/>
<path d="M111.72 156.926L166.267 125.425C166.733 125.162 167.114 125.349 167.114 125.848C167.094 126.13 167.006 126.402 166.859 126.642C166.711 126.882 166.508 127.084 166.267 127.229L111.72 158.731C111.254 158.993 110.873 158.807 110.873 158.307C110.896 158.027 110.985 157.756 111.132 157.516C111.279 157.276 111.481 157.074 111.72 156.926Z" fill="#E0E0E0"/>
<path d="M117.32 164.84L120.896 162.772C121.633 162.34 122.235 162.687 122.235 163.535V167.678C122.208 168.14 122.073 168.59 121.84 168.99C121.608 169.39 121.284 169.73 120.896 169.982L117.32 172.05C116.583 172.473 115.982 172.134 115.982 171.279V167.144C116.008 166.682 116.143 166.232 116.376 165.832C116.608 165.432 116.932 165.092 117.32 164.84Z" fill="white"/>
<path d="M111.72 178.896L126.505 170.355C126.962 170.093 127.352 170.279 127.352 170.779C127.33 171.06 127.242 171.331 127.095 171.571C126.947 171.811 126.745 172.013 126.505 172.16L111.72 180.692C111.254 180.963 110.873 180.768 110.873 180.277C110.893 179.995 110.981 179.723 111.128 179.483C111.276 179.243 111.479 179.041 111.72 178.896Z" fill="#E0E0E0"/>
<path d="M137.206 153.351L140.781 151.283C141.518 150.851 142.12 151.199 142.12 152.046V156.189C142.093 156.651 141.958 157.101 141.726 157.501C141.493 157.902 141.17 158.241 140.781 158.494L137.206 160.561C136.469 160.984 135.867 160.637 135.867 159.79V155.672C135.891 155.207 136.025 154.754 136.257 154.351C136.49 153.947 136.815 153.604 137.206 153.351Z" fill="white"/>
<path d="M131.605 167.398L146.39 158.866C146.848 158.604 147.237 158.79 147.237 159.29C147.215 159.571 147.127 159.842 146.98 160.082C146.833 160.323 146.631 160.524 146.39 160.671L131.605 169.228C131.139 169.499 130.758 169.305 130.758 168.813C130.776 168.527 130.862 168.249 131.01 168.003C131.157 167.757 131.361 167.549 131.605 167.398Z" fill="#E0E0E0"/>
<path d="M157.091 141.862L160.667 139.786C161.404 139.362 162.005 139.71 162.005 140.557V144.658C161.98 145.121 161.846 145.573 161.613 145.975C161.38 146.377 161.056 146.718 160.667 146.971L157.091 149.038C156.354 149.462 155.752 149.114 155.752 148.267V144.132C155.784 143.676 155.922 143.233 156.154 142.839C156.386 142.445 156.707 142.11 157.091 141.862Z" fill="white"/>
<path d="M151.482 155.909L166.267 147.377C166.733 147.115 167.114 147.301 167.114 147.801C167.094 148.082 167.006 148.354 166.859 148.595C166.711 148.835 166.508 149.036 166.267 149.182L151.482 157.714C151.025 157.985 150.635 157.79 150.635 157.29C150.659 157.01 150.748 156.739 150.895 156.499C151.042 156.26 151.243 156.058 151.482 155.909Z" fill="#E0E0E0"/>
<path d="M111.72 182.412L126.505 173.88C126.962 173.617 127.352 173.804 127.352 174.303C127.328 174.584 127.239 174.855 127.092 175.094C126.945 175.334 126.744 175.536 126.505 175.685L111.72 184.216C111.254 184.479 110.873 184.293 110.873 183.793C110.895 183.512 110.983 183.24 111.13 183C111.277 182.76 111.48 182.558 111.72 182.412Z" fill="#E0E0E0"/>
<path d="M131.605 170.923L146.39 162.391C146.848 162.12 147.237 162.315 147.237 162.806C147.215 163.088 147.126 163.36 146.979 163.602C146.832 163.843 146.63 164.047 146.39 164.196L131.605 172.728C131.139 172.99 130.758 172.804 130.758 172.304C130.779 172.023 130.866 171.751 131.014 171.51C131.161 171.27 131.364 171.069 131.605 170.923Z" fill="#E0E0E0"/>
<path d="M151.482 159.434L166.267 150.902C166.733 150.631 167.114 150.826 167.114 151.317C167.092 151.599 167.004 151.872 166.857 152.113C166.71 152.355 166.508 152.558 166.267 152.707L151.482 161.239C151.025 161.501 150.635 161.315 150.635 160.815C150.657 160.534 150.745 160.263 150.892 160.022C151.04 159.782 151.242 159.581 151.482 159.434Z" fill="#E0E0E0"/>
<path d="M111.72 185.936L126.505 177.396C126.962 177.133 127.352 177.32 127.352 177.82C127.33 178.1 127.242 178.372 127.095 178.612C126.947 178.852 126.745 179.054 126.505 179.201L111.72 187.741C111.254 188.004 110.873 187.817 110.873 187.317C110.893 187.036 110.981 186.764 111.128 186.524C111.276 186.283 111.479 186.082 111.72 185.936Z" fill="#E0E0E0"/>
<path d="M131.605 174.448L146.39 165.907C146.848 165.644 147.237 165.831 147.237 166.331C147.215 166.612 147.127 166.883 146.98 167.123C146.833 167.363 146.631 167.565 146.39 167.712L131.605 176.252C131.139 176.515 130.758 176.328 130.758 175.829C130.779 175.547 130.866 175.275 131.014 175.035C131.161 174.795 131.364 174.593 131.605 174.448Z" fill="#E0E0E0"/>
<path d="M151.482 162.959L166.267 154.418C166.733 154.156 167.114 154.342 167.114 154.842C167.094 155.123 167.006 155.395 166.859 155.635C166.711 155.876 166.508 156.077 166.267 156.223L151.482 164.755C151.025 165.026 150.635 164.84 150.635 164.34C150.657 164.059 150.745 163.787 150.892 163.547C151.04 163.307 151.242 163.105 151.482 162.959Z" fill="#E0E0E0"/>
<path d="M117.32 194.451L120.896 192.384C121.633 191.96 122.235 192.308 122.235 193.155V197.29C122.208 197.752 122.073 198.202 121.84 198.602C121.608 199.002 121.284 199.342 120.896 199.594L117.32 201.662C116.583 202.094 115.982 201.746 115.982 200.899V196.756C116.008 196.294 116.143 195.844 116.376 195.444C116.608 195.043 116.932 194.703 117.32 194.451Z" fill="white"/>
<path d="M111.72 208.508L126.505 199.976C126.962 199.704 127.352 199.899 127.352 200.391C127.33 200.672 127.242 200.943 127.095 201.183C126.947 201.423 126.745 201.625 126.505 201.772L111.72 210.312C111.254 210.575 110.873 210.388 110.873 209.889C110.893 209.607 110.981 209.335 111.128 209.095C111.276 208.855 111.479 208.653 111.72 208.508Z" fill="#E0E0E0"/>
<path d="M137.206 182.962L140.781 180.895C141.518 180.472 142.12 180.81 142.12 181.666V185.801C142.093 186.263 141.958 186.713 141.726 187.113C141.493 187.513 141.17 187.853 140.781 188.105L137.206 190.173C136.469 190.605 135.867 190.257 135.867 189.41V185.267C135.894 184.805 136.029 184.355 136.261 183.955C136.494 183.555 136.817 183.215 137.206 182.962Z" fill="white"/>
<path d="M131.605 197.019L146.39 188.487C146.848 188.216 147.237 188.402 147.237 188.902C147.215 189.183 147.127 189.454 146.98 189.694C146.833 189.934 146.631 190.136 146.39 190.283L131.605 198.823C131.139 199.086 130.758 198.9 130.758 198.4C130.779 198.118 130.866 197.846 131.014 197.606C131.161 197.366 131.364 197.164 131.605 197.019Z" fill="#E0E0E0"/>
<path d="M157.091 171.474L160.667 169.406C161.404 168.983 162.005 169.322 162.005 170.177V174.312C161.979 174.774 161.844 175.224 161.611 175.624C161.379 176.024 161.055 176.364 160.667 176.617L157.091 178.684C156.354 179.107 155.752 178.769 155.752 177.921V173.778C155.779 173.316 155.914 172.866 156.147 172.466C156.379 172.066 156.703 171.726 157.091 171.474Z" fill="white"/>
<path d="M151.482 185.53L166.267 176.989C166.733 176.727 167.114 176.913 167.114 177.413C167.094 177.694 167.006 177.966 166.859 178.207C166.711 178.447 166.508 178.648 166.267 178.794L151.482 187.334C151.025 187.597 150.635 187.411 150.635 186.911C150.657 186.63 150.745 186.358 150.892 186.118C151.04 185.878 151.242 185.676 151.482 185.53Z" fill="#E0E0E0"/>
<path d="M111.72 212.032L126.505 203.492C126.962 203.229 127.352 203.415 127.352 203.915C127.33 204.196 127.242 204.468 127.095 204.708C126.947 204.948 126.745 205.15 126.505 205.296L111.72 213.828C111.254 214.099 110.873 213.905 110.873 213.413C110.893 213.132 110.981 212.86 111.128 212.62C111.276 212.379 111.479 212.178 111.72 212.032Z" fill="#E0E0E0"/>
<path d="M131.605 200.577L146.39 192.045C146.848 191.783 147.237 191.969 147.237 192.469C147.215 192.75 147.127 193.021 146.98 193.261C146.833 193.501 146.631 193.703 146.39 193.85L131.605 202.382C131.139 202.653 130.758 202.458 130.758 201.967C130.78 201.685 130.868 201.412 131.015 201.17C131.163 200.929 131.365 200.726 131.605 200.577Z" fill="#E0E0E0"/>
<path d="M151.482 189.046L166.267 180.514C166.733 180.251 167.114 180.438 167.114 180.938C167.094 181.219 167.006 181.491 166.859 181.731C166.711 181.971 166.508 182.173 166.267 182.319L151.482 190.85C151.025 191.122 150.635 190.927 150.635 190.435C150.657 190.154 150.746 189.881 150.893 189.64C151.04 189.398 151.242 189.195 151.482 189.046Z" fill="#E0E0E0"/>
<path d="M111.72 215.548L126.505 207.016C126.962 206.754 127.352 206.94 127.352 207.44C127.328 207.72 127.239 207.991 127.092 208.231C126.945 208.471 126.744 208.673 126.505 208.821L111.72 217.353C111.254 217.616 110.873 217.429 110.873 216.929C110.896 216.649 110.985 216.378 111.132 216.138C111.279 215.898 111.481 215.696 111.72 215.548Z" fill="#E0E0E0"/>
<path d="M131.605 204.059L146.39 195.494C146.848 195.231 147.237 195.417 147.237 195.917C147.214 196.197 147.124 196.468 146.977 196.708C146.83 196.948 146.629 197.15 146.39 197.298L131.605 205.83C131.139 206.093 130.758 205.906 130.758 205.407C130.784 205.131 130.874 204.866 131.021 204.632C131.168 204.398 131.368 204.202 131.605 204.059Z" fill="#E0E0E0"/>
<path d="M151.482 192.57L166.267 184.039C166.733 183.767 167.114 183.962 167.114 184.454C167.092 184.736 167.004 185.008 166.857 185.25C166.71 185.491 166.508 185.695 166.267 185.843L151.482 194.375C151.025 194.638 150.635 194.451 150.635 193.952C150.657 193.671 150.745 193.399 150.892 193.159C151.04 192.919 151.242 192.717 151.482 192.57Z" fill="#E0E0E0"/>
<path d="M78.2107 64.4811C86.8613 59.4908 93.8682 63.5322 93.8682 73.5214C93.8682 83.5107 86.8613 95.635 78.2107 100.634C69.5602 105.633 62.5618 101.583 62.5618 91.6021C62.5618 81.6213 69.5686 69.4715 78.2107 64.4811Z" fill="#FAFAFA"/>
<path d="M78.2108 72.3353C81.0152 70.717 83.2944 72.0302 83.2944 75.2668C83.198 77.0291 82.6875 78.7439 81.8042 80.272C80.9209 81.8 79.6898 83.0983 78.2108 84.0614C75.4063 85.6797 73.1272 84.3664 73.1272 81.1299C73.2229 79.3674 73.7331 77.6523 74.6165 76.1242C75.4998 74.596 76.7313 73.2979 78.2108 72.3353Z" fill="#E0E0E0"/>
<path d="M88.1238 89.5855C88.1238 84.2647 84.3874 82.1127 79.7782 84.7731L76.8976 86.4676C72.2884 89.128 68.552 95.6011 68.552 100.922V102.354C71.2209 103.201 74.5676 102.752 78.2193 100.659C82.2268 98.1846 85.6148 94.8256 88.1238 90.8395V89.5855Z" fill="#E0E0E0"/>
<path d="M68.9501 126.34L90.6062 113.834C91.5213 113.3 92.3007 113.682 92.3007 114.681C92.2571 115.243 92.0807 115.786 91.7861 116.267C91.4915 116.747 91.0871 117.15 90.6062 117.444L68.9501 129.949C68.0266 130.483 67.2556 130.102 67.2556 129.102C67.2979 128.54 67.4737 127.996 67.7685 127.516C68.0632 127.035 68.4683 126.632 68.9501 126.34Z" fill="#F5F5F5"/>
<path d="M0.067627 307.909L27.5952 188.682L178.298 101.676L150.77 220.895L0.067627 307.909Z" fill="#BDABFF"/>
<path opacity="0.1" d="M75.7791 264.19V160.866L177.9 102.193L150.77 220.895L75.7791 264.19Z" fill="black"/>
<path d="M101.748 279.195L75.7791 264.19L124.141 236.476L101.748 279.195Z" fill="#E0E0E0"/>
<path d="M101.748 279.195C101.285 278.88 100.902 278.46 100.632 277.97C100.361 277.48 100.209 276.933 100.189 276.373V92.678C100.225 92.0985 100.397 91.5356 100.692 91.0351C100.986 90.5346 101.395 90.1105 101.883 89.7973L217.205 23.1939C217.687 22.8912 218.242 22.7257 218.811 22.7154C219.38 22.7051 219.941 22.8503 220.434 23.1354C220.926 23.4205 221.332 23.8347 221.606 24.3332C221.881 24.8318 222.014 25.3958 221.992 25.9645V209.651C221.957 210.231 221.785 210.795 221.491 211.295C221.196 211.796 220.787 212.22 220.297 212.532L104.976 279.135C104.48 279.397 103.93 279.539 103.369 279.549C102.808 279.559 102.253 279.438 101.748 279.195Z" fill="#EBEBEB"/>
<path d="M103.307 96.1688L150.161 65.5148L147.034 63.7101L101.85 89.7973C101.361 90.1105 100.952 90.5346 100.658 91.0351C100.363 91.5356 100.191 92.0985 100.155 92.678V94.3726L103.307 96.1688Z" fill="#455A64"/>
<path d="M118.922 101.574L100.672 91.0428C100.374 91.5378 100.208 92.1007 100.189 92.678V276.373C100.168 276.941 100.302 277.504 100.578 278.002C100.853 278.499 101.258 278.912 101.751 279.196C102.243 279.48 102.803 279.624 103.372 279.614C103.94 279.603 104.495 279.438 104.976 279.135L118.922 271.078V101.574Z" fill="#263238"/>
<path d="M104.976 279.135L220.297 212.532C220.787 212.22 221.196 211.796 221.49 211.295C221.785 210.795 221.957 210.231 221.992 209.651V25.9645C221.992 24.8969 221.246 24.4733 220.297 24.9986L104.976 91.602C104.485 91.9132 104.075 92.3367 103.781 92.8377C103.486 93.3386 103.315 93.9025 103.281 94.4827V278.17C103.307 279.237 104.052 279.661 104.976 279.135Z" fill="#37474F"/>
<path d="M112.881 136.914L140.578 120.934C142.416 119.875 143.908 120.629 143.908 122.629C143.825 123.747 143.48 124.831 142.902 125.792C142.324 126.753 141.527 127.565 140.578 128.161L112.881 144.149C111.042 145.208 109.551 144.454 109.551 142.455C109.63 141.334 109.973 140.248 110.551 139.285C111.13 138.322 111.928 137.509 112.881 136.914Z" fill="#E0E0E0"/>
<path d="M110.89 166.144L114.474 164.077C115.202 163.653 115.804 164.001 115.804 164.848V168.983C115.778 169.445 115.644 169.895 115.413 170.297C115.182 170.698 114.86 171.04 114.474 171.296L110.89 173.363C110.153 173.787 109.56 173.439 109.56 172.592V168.457C109.583 167.994 109.716 167.543 109.947 167.141C110.178 166.739 110.501 166.398 110.89 166.144Z" fill="#BDABFF"/>
<path d="M120.591 162.349L142.247 149.843C143.162 149.318 143.942 149.69 143.942 150.69C143.896 151.251 143.719 151.794 143.424 152.274C143.13 152.754 142.727 153.157 142.247 153.452L120.591 165.958C119.668 166.483 118.897 166.11 118.897 165.111C118.942 164.549 119.119 164.007 119.413 163.527C119.707 163.047 120.111 162.643 120.591 162.349Z" fill="#E0E0E0"/>
<path d="M110.89 180.573L114.474 178.548C115.202 178.125 115.804 178.464 115.804 179.319V183.454C115.778 183.915 115.644 184.364 115.413 184.764C115.182 185.164 114.86 185.505 114.474 185.758L110.89 187.826C110.153 188.249 109.56 187.91 109.56 187.063V182.92C109.577 182.451 109.707 181.993 109.939 181.585C110.17 181.176 110.496 180.829 110.89 180.573Z" fill="#BDABFF"/>
<path d="M120.591 176.777L142.247 164.272C143.162 163.738 143.942 164.119 143.942 165.119C143.897 165.682 143.721 166.226 143.426 166.707C143.132 167.189 142.728 167.594 142.247 167.89L120.591 180.387C119.668 180.921 118.897 180.548 118.897 179.54C118.939 178.978 119.115 178.434 119.409 177.953C119.704 177.473 120.109 177.07 120.591 176.777Z" fill="#E0E0E0"/>
<path d="M110.89 195.002L114.474 192.952C115.202 192.528 115.804 192.875 115.804 193.723V197.857C115.779 198.32 115.646 198.771 115.415 199.172C115.184 199.574 114.861 199.916 114.474 200.17L110.89 202.238C110.153 202.661 109.56 202.314 109.56 201.467V197.332C109.58 196.866 109.711 196.411 109.943 196.006C110.174 195.601 110.499 195.257 110.89 195.002Z" fill="#BDABFF"/>
<path d="M120.591 191.198L142.247 178.692C143.162 178.167 143.942 178.54 143.942 179.54C143.897 180.101 143.72 180.644 143.425 181.124C143.131 181.604 142.727 182.007 142.247 182.302L120.591 194.807C119.668 195.341 118.897 194.96 118.897 193.96C118.942 193.399 119.119 192.856 119.413 192.376C119.707 191.896 120.111 191.492 120.591 191.198Z" fill="#E0E0E0"/>
<path d="M110.89 209.465L114.474 207.355C115.202 206.932 115.804 207.279 115.804 208.126V212.269C115.778 212.731 115.644 213.179 115.413 213.58C115.182 213.98 114.86 214.32 114.474 214.574L110.89 216.675C110.153 217.099 109.56 216.751 109.56 215.904V211.769C109.584 211.308 109.717 210.858 109.948 210.458C110.179 210.057 110.502 209.717 110.89 209.465Z" fill="#BDABFF"/>
<path d="M120.591 205.661L142.247 193.164C143.162 192.63 143.942 193.003 143.942 194.011C143.897 194.572 143.72 195.115 143.425 195.595C143.131 196.075 142.727 196.478 142.247 196.773L120.591 209.278C119.668 209.812 118.897 209.431 118.897 208.431C118.94 207.868 119.117 207.324 119.411 206.842C119.706 206.361 120.11 205.956 120.591 205.661Z" fill="#E0E0E0"/>
<path d="M111.22 239.619L126.632 230.723C127.547 230.197 128.327 230.57 128.327 231.57C128.281 232.131 128.104 232.674 127.809 233.153C127.515 233.633 127.112 234.037 126.632 234.332L111.22 243.228C110.305 243.762 109.526 243.381 109.526 242.381C109.571 241.82 109.749 241.277 110.043 240.798C110.337 240.318 110.741 239.914 111.22 239.619Z" fill="#E0E0E0"/>
<path d="M111.22 246.838L142.247 228.918C143.162 228.393 143.942 228.766 143.942 229.765C143.896 230.326 143.719 230.869 143.424 231.349C143.13 231.829 142.727 232.232 142.247 232.527L111.22 250.439C110.305 250.972 109.526 250.591 109.526 249.591C109.571 249.031 109.748 248.49 110.042 248.011C110.337 247.532 110.74 247.13 111.22 246.838Z" fill="#FAFAFA"/>
<path d="M111.22 246.838L132.876 234.332C133.8 233.798 134.571 234.18 134.571 235.179C134.527 235.742 134.351 236.287 134.056 236.768C133.762 237.25 133.357 237.655 132.876 237.95L111.22 250.447C110.305 250.981 109.526 250.6 109.526 249.6C109.569 249.038 109.746 248.495 110.04 248.015C110.335 247.534 110.739 247.131 111.22 246.838Z" fill="#BDABFF"/>
<path d="M111.22 254.039L126.632 245.143C127.547 244.609 128.327 244.991 128.327 245.99C128.282 246.553 128.106 247.097 127.811 247.579C127.517 248.06 127.113 248.465 126.632 248.761L111.22 257.657C110.305 258.183 109.526 257.81 109.526 256.81C109.57 256.247 109.747 255.703 110.041 255.222C110.336 254.74 110.74 254.335 111.22 254.039Z" fill="#E0E0E0"/>
<path d="M111.22 225.207L126.632 216.311C127.547 215.777 128.327 216.158 128.327 217.158C128.283 217.72 128.107 218.263 127.812 218.743C127.517 219.223 127.113 219.627 126.632 219.92L111.22 228.816C110.305 229.35 109.526 228.977 109.526 227.969C109.569 227.407 109.746 226.864 110.04 226.384C110.335 225.904 110.739 225.5 111.22 225.207Z" fill="#E0E0E0"/>
<path d="M111.22 232.417L142.247 214.506C143.162 213.972 143.942 214.354 143.942 215.353C143.898 215.915 143.722 216.458 143.427 216.938C143.132 217.419 142.728 217.822 142.247 218.115L111.22 236.035C110.305 236.56 109.526 236.188 109.526 235.188C109.57 234.625 109.747 234.081 110.041 233.6C110.336 233.118 110.74 232.713 111.22 232.417Z" fill="#FAFAFA"/>
<path d="M111.22 232.417L122.235 226.063C123.15 225.537 123.929 225.91 123.929 226.91C123.884 227.471 123.706 228.014 123.412 228.494C123.118 228.973 122.714 229.377 122.235 229.672L111.22 236.027C110.305 236.552 109.526 236.179 109.526 235.179C109.571 234.618 109.749 234.076 110.043 233.596C110.337 233.116 110.741 232.712 111.22 232.417Z" fill="#BDABFF"/>
<path d="M111.22 261.25L142.247 243.338C143.162 242.805 143.942 243.186 143.942 244.186C143.896 244.747 143.719 245.289 143.424 245.769C143.13 246.249 142.727 246.653 142.247 246.948L111.22 264.859C110.305 265.393 109.526 265.011 109.526 264.012C109.571 263.451 109.749 262.908 110.043 262.428C110.337 261.948 110.741 261.545 111.22 261.25Z" fill="#FAFAFA"/>
<path d="M111.22 261.25L139.121 245.152C140.044 244.618 140.815 244.999 140.815 245.999C140.772 246.562 140.595 247.106 140.301 247.588C140.006 248.069 139.602 248.474 139.121 248.769L111.22 264.867C110.305 265.401 109.526 265.02 109.526 264.02C109.57 263.458 109.747 262.913 110.041 262.432C110.336 261.951 110.74 261.545 111.22 261.25Z" fill="#BDABFF"/>
<path d="M220.297 24.9986L150.135 65.5148V253.048L220.297 212.532C220.787 212.22 221.196 211.796 221.49 211.295C221.785 210.795 221.957 210.231 221.991 209.651V25.9645C221.991 24.8969 221.246 24.4733 220.297 24.9986Z" fill="#FAFAFA"/>
<path d="M150.161 72.725V87.1539L143.908 94.3641H150.152L150.161 108.793L215.747 70.9203V34.8607L150.161 72.725Z" fill="#BDABFF"/>
<path d="M158.735 73.2249L185.305 57.8894C186.593 57.1438 187.635 57.7454 187.635 59.2365C187.6 60.0536 187.37 60.8505 186.965 61.5608C186.56 62.2711 185.991 62.8744 185.305 63.3203L158.735 78.6643C157.447 79.4099 156.405 78.8083 156.405 77.3172C156.44 76.4989 156.67 75.7009 157.075 74.9892C157.48 74.2775 158.049 73.6727 158.735 73.2249Z" fill="#FAFAFA"/>
<path d="M157.235 84.8663L208.664 55.212C209.13 54.9409 209.511 55.1358 209.511 55.6272C209.49 55.9093 209.402 56.1824 209.255 56.4239C209.108 56.6655 208.905 56.8687 208.664 57.0167L157.235 86.6709C156.778 86.9336 156.388 86.7472 156.388 86.2473C156.412 85.967 156.501 85.6961 156.648 85.4564C156.795 85.2166 156.996 85.0145 157.235 84.8663Z" fill="#FAFAFA"/>
<path d="M157.235 90.2803L208.664 60.6261C209.13 60.3634 209.511 60.5498 209.511 61.0497C209.492 61.3311 209.404 61.6035 209.257 61.8439C209.109 62.0843 208.906 62.2856 208.664 62.4307L157.235 92.085C156.778 92.3476 156.388 92.1612 156.388 91.6613C156.41 91.3805 156.498 91.1089 156.645 90.8688C156.793 90.6287 156.995 90.427 157.235 90.2803Z" fill="#FAFAFA"/>
<path d="M157.235 95.6858L208.664 66.0316C209.13 65.7605 209.511 65.9553 209.511 66.4468C209.492 66.7281 209.404 67.0006 209.257 67.241C209.109 67.4814 208.906 67.6827 208.664 67.8278L157.235 97.5244C156.778 97.787 156.388 97.6006 156.388 97.1007C156.407 96.8145 156.493 96.5369 156.64 96.2908C156.788 96.0448 156.992 95.8374 157.235 95.6858Z" fill="#FAFAFA"/>
<path d="M159.175 110.818L162.759 108.742C163.488 108.319 164.09 108.666 164.09 109.513V113.648C164.065 114.111 163.931 114.561 163.7 114.963C163.469 115.365 163.147 115.707 162.759 115.961L159.175 118.028C158.438 118.452 157.845 118.104 157.845 117.257V113.123C157.869 112.661 158.003 112.211 158.234 111.811C158.465 111.41 158.788 111.07 159.175 110.818Z" fill="#BDABFF"/>
<path d="M168.877 107.014L190.533 94.5081C191.456 93.9828 192.227 94.3556 192.227 95.3554C192.184 95.917 192.007 96.4603 191.713 96.9405C191.418 97.4207 191.014 97.8241 190.533 98.1175L168.877 110.623C167.953 111.148 167.182 110.776 167.182 109.776C167.227 109.215 167.404 108.672 167.699 108.192C167.993 107.712 168.397 107.308 168.877 107.014Z" fill="#455A64"/>
<path d="M158.676 123.73L213.231 92.229C213.688 91.9663 214.078 92.1527 214.078 92.6526C214.056 92.9334 213.968 93.2051 213.821 93.4452C213.673 93.6853 213.471 93.8869 213.231 94.0336L158.676 125.535C158.218 125.798 157.828 125.611 157.828 125.111C157.852 124.831 157.941 124.56 158.088 124.32C158.235 124.081 158.436 123.878 158.676 123.73Z" fill="#455A64"/>
<path d="M158.676 129.144L213.231 97.643C213.688 97.3719 214.078 97.5583 214.078 98.0582C214.056 98.339 213.968 98.6106 213.821 98.8507C213.673 99.0908 213.471 99.2925 213.231 99.4392L158.676 130.94C158.218 131.212 157.828 131.025 157.828 130.525C157.85 130.244 157.938 129.973 158.086 129.733C158.233 129.493 158.435 129.291 158.676 129.144Z" fill="#455A64"/>
<path d="M158.676 134.55L213.231 103.049C213.688 102.786 214.078 102.972 214.078 103.472C214.054 103.753 213.965 104.023 213.818 104.263C213.671 104.503 213.47 104.705 213.231 104.853L158.676 136.355C158.218 136.617 157.828 136.431 157.828 135.931C157.85 135.65 157.938 135.378 158.086 135.138C158.233 134.898 158.435 134.697 158.676 134.55Z" fill="#455A64"/>
<path d="M158.676 139.972L213.231 108.471C213.688 108.208 214.078 108.395 214.078 108.895C214.056 109.175 213.968 109.447 213.821 109.687C213.673 109.927 213.471 110.129 213.231 110.276L158.676 141.777C158.218 142.048 157.828 141.853 157.828 141.362C157.851 141.08 157.939 140.807 158.086 140.566C158.234 140.325 158.435 140.121 158.676 139.972Z" fill="#455A64"/>
<path d="M159.175 150.487L162.759 148.42C163.488 147.996 164.09 148.335 164.09 149.182V153.325C164.063 153.787 163.929 154.235 163.698 154.636C163.467 155.036 163.146 155.376 162.759 155.63L159.175 157.697C158.438 158.121 157.845 157.782 157.845 156.926V152.791C157.869 152.33 158.003 151.88 158.234 151.48C158.465 151.079 158.788 150.739 159.175 150.487Z" fill="#BDABFF"/>
<path d="M168.877 146.683L190.533 134.185C191.456 133.652 192.227 134.033 192.227 135.033C192.186 135.595 192.01 136.139 191.715 136.62C191.421 137.1 191.015 137.503 190.533 137.795L168.877 150.3C167.953 150.834 167.182 150.453 167.182 149.453C167.226 148.89 167.402 148.346 167.697 147.864C167.991 147.383 168.396 146.978 168.877 146.683Z" fill="#455A64"/>
<path d="M158.676 163.399L213.231 131.898C213.688 131.635 214.078 131.822 214.078 132.322C214.056 132.602 213.968 132.874 213.821 133.114C213.673 133.354 213.471 133.556 213.231 133.703L158.676 165.204C158.218 165.475 157.828 165.28 157.828 164.789C157.851 164.507 157.939 164.234 158.086 163.993C158.234 163.752 158.435 163.548 158.676 163.399Z" fill="#455A64"/>
<path d="M158.676 168.813L213.231 137.312C213.688 137.041 214.078 137.236 214.078 137.727C214.056 138.009 213.967 138.281 213.82 138.523C213.673 138.764 213.471 138.968 213.231 139.117L158.676 170.618C158.218 170.88 157.828 170.694 157.828 170.194C157.85 169.913 157.938 169.642 158.086 169.402C158.233 169.162 158.435 168.96 158.676 168.813Z" fill="#455A64"/>
<path d="M158.676 174.219L213.231 142.717C213.688 142.455 214.078 142.641 214.078 143.141C214.056 143.422 213.968 143.693 213.821 143.934C213.673 144.174 213.471 144.375 213.231 144.522L158.676 176.006C158.218 176.278 157.828 176.083 157.828 175.583C157.855 175.305 157.945 175.038 158.092 174.801C158.239 174.565 158.439 174.365 158.676 174.219Z" fill="#455A64"/>
<path d="M158.676 179.65L213.231 148.148C213.688 147.877 214.078 148.064 214.078 148.564C214.056 148.844 213.968 149.116 213.821 149.356C213.673 149.596 213.471 149.798 213.231 149.945L158.676 181.446C158.218 181.717 157.828 181.531 157.828 181.031C157.85 180.75 157.938 180.478 158.086 180.238C158.233 179.998 158.435 179.796 158.676 179.65Z" fill="#455A64"/>
<path d="M164.276 187.555L167.86 185.487C168.597 185.064 169.19 185.411 169.19 186.258V190.41C169.166 190.872 169.033 191.321 168.802 191.722C168.57 192.122 168.248 192.462 167.86 192.714L164.276 194.79C163.539 195.214 162.946 194.867 162.946 194.019V189.876C162.967 189.411 163.099 188.958 163.331 188.555C163.562 188.151 163.886 187.808 164.276 187.555Z" fill="#BDABFF"/>
<path d="M158.676 201.611L173.46 193.079C173.918 192.808 174.308 193.003 174.308 193.494C174.286 193.775 174.198 194.046 174.05 194.287C173.903 194.527 173.701 194.728 173.46 194.875L158.676 203.415C158.218 203.678 157.828 203.492 157.828 202.992C157.85 202.711 157.938 202.439 158.086 202.199C158.233 201.959 158.435 201.757 158.676 201.611Z" fill="#455A64"/>
<path d="M184.161 176.066L187.745 173.998C188.482 173.575 189.075 173.914 189.075 174.769V178.904C189.051 179.366 188.918 179.815 188.687 180.216C188.456 180.616 188.133 180.957 187.745 181.209L184.161 183.276C183.424 183.708 182.831 183.361 182.831 182.513V178.37C182.855 177.908 182.988 177.459 183.22 177.058C183.451 176.658 183.773 176.318 184.161 176.066Z" fill="#BDABFF"/>
<path d="M178.561 190.122L193.346 181.59C193.803 181.319 194.193 181.514 194.193 182.005C194.171 182.286 194.083 182.558 193.936 182.798C193.788 183.038 193.586 183.239 193.346 183.386L178.561 191.927C178.103 192.189 177.714 192.003 177.714 191.503C177.735 191.222 177.824 190.95 177.971 190.71C178.118 190.47 178.32 190.269 178.561 190.122Z" fill="#455A64"/>
<path d="M204.047 164.577L207.63 162.51C208.368 162.086 208.961 162.425 208.961 163.281V167.415C208.936 167.877 208.803 168.327 208.572 168.727C208.341 169.128 208.018 169.468 207.63 169.72L204.047 171.77C203.309 172.194 202.716 171.855 202.716 171.008V166.864C202.743 166.406 202.878 165.959 203.109 165.562C203.34 165.165 203.661 164.827 204.047 164.577Z" fill="#BDABFF"/>
<path d="M198.446 178.633L213.231 170.076C213.688 169.804 214.078 169.991 214.078 170.491C214.056 170.772 213.968 171.043 213.821 171.283C213.674 171.523 213.471 171.725 213.231 171.872L198.446 180.412C197.989 180.675 197.599 180.488 197.599 179.989C197.625 179.712 197.715 179.446 197.862 179.21C198.009 178.975 198.209 178.777 198.446 178.633Z" fill="#455A64"/>
<path d="M158.676 205.135L173.46 196.595C173.918 196.332 174.308 196.519 174.308 197.019C174.286 197.299 174.198 197.571 174.05 197.811C173.903 198.051 173.701 198.253 173.46 198.4L158.676 206.932C158.218 207.203 157.828 207.016 157.828 206.516C157.85 206.236 157.938 205.964 158.086 205.724C158.233 205.484 158.435 205.282 158.676 205.135Z" fill="#455A64"/>
<path d="M178.561 193.646L193.346 185.106C193.803 184.843 194.193 185.03 194.193 185.53C194.171 185.811 194.083 186.082 193.936 186.322C193.788 186.562 193.586 186.764 193.346 186.911L178.561 195.443C178.103 195.714 177.714 195.519 177.714 195.028C177.735 194.747 177.824 194.475 177.971 194.235C178.118 193.995 178.32 193.793 178.561 193.646Z" fill="#455A64"/>
<path d="M198.446 182.149L213.231 173.617C213.688 173.354 214.078 173.541 214.078 174.041C214.056 174.322 213.968 174.593 213.821 174.833C213.674 175.073 213.471 175.275 213.231 175.422L198.446 183.954C197.989 184.225 197.599 184.03 197.599 183.539C197.621 183.257 197.71 182.984 197.857 182.743C198.004 182.502 198.206 182.298 198.446 182.149Z" fill="#455A64"/>
<path d="M158.676 208.651L173.46 200.12C173.918 199.857 174.308 200.043 174.308 200.543C174.284 200.823 174.195 201.094 174.048 201.334C173.9 201.574 173.699 201.776 173.46 201.924L158.676 210.456C158.218 210.719 157.828 210.532 157.828 210.033C157.852 209.752 157.941 209.481 158.088 209.242C158.235 209.002 158.436 208.8 158.676 208.651Z" fill="#455A64"/>
<path d="M178.561 197.188L193.346 188.656C193.803 188.393 194.193 188.58 194.193 189.08C194.169 189.36 194.08 189.631 193.933 189.871C193.786 190.11 193.585 190.313 193.346 190.461L178.561 198.967C178.103 199.23 177.714 199.044 177.714 198.544C177.741 198.268 177.831 198.002 177.978 197.766C178.125 197.531 178.325 197.333 178.561 197.188Z" fill="#455A64"/>
<path d="M198.446 185.674L213.231 177.142C213.688 176.871 214.078 177.066 214.078 177.557C214.056 177.839 213.967 178.111 213.82 178.353C213.673 178.594 213.471 178.797 213.231 178.946L198.446 187.478C197.989 187.741 197.599 187.555 197.599 187.055C197.621 186.774 197.709 186.502 197.856 186.262C198.003 186.022 198.206 185.82 198.446 185.674Z" fill="#455A64"/>
<path d="M164.276 217.175L167.86 215.099C168.597 214.676 169.19 215.023 169.19 215.87V220.013C169.166 220.475 169.033 220.925 168.802 221.325C168.57 221.726 168.248 222.066 167.86 222.318L164.276 224.385C163.539 224.809 162.946 224.461 162.946 223.614V219.48C162.97 219.018 163.103 218.568 163.334 218.168C163.566 217.767 163.888 217.427 164.276 217.175Z" fill="#BDABFF"/>
<path d="M158.676 231.223L173.46 222.691C173.918 222.428 174.308 222.614 174.308 223.114C174.286 223.395 174.198 223.667 174.05 223.907C173.903 224.147 173.701 224.349 173.46 224.495L158.676 233.027C158.218 233.298 157.828 233.104 157.828 232.612C157.851 232.33 157.939 232.058 158.086 231.816C158.234 231.575 158.435 231.372 158.676 231.223Z" fill="#455A64"/>
<path d="M184.161 205.661L187.745 203.585C188.482 203.161 189.075 203.509 189.075 204.356V208.491C189.052 208.954 188.919 209.405 188.688 209.807C188.457 210.209 188.134 210.55 187.745 210.804L184.161 212.871C183.424 213.295 182.831 212.947 182.831 212.1V207.965C182.855 207.503 182.988 207.054 183.22 206.653C183.451 206.253 183.773 205.913 184.161 205.661Z" fill="#BDABFF"/>
<path d="M178.561 219.734L193.346 211.202C193.803 210.939 194.193 211.126 194.193 211.625C194.17 211.906 194.081 212.177 193.934 212.417C193.787 212.657 193.585 212.859 193.346 213.006L178.561 221.538C178.103 221.801 177.714 221.615 177.714 221.115C177.737 220.834 177.826 220.564 177.974 220.324C178.121 220.084 178.322 219.882 178.561 219.734Z" fill="#455A64"/>
<path d="M204.047 194.189L207.63 192.121C208.368 191.698 208.961 192.045 208.961 192.892V197.027C208.936 197.49 208.803 197.941 208.572 198.343C208.341 198.745 208.018 199.086 207.63 199.34L204.047 201.424C203.309 201.848 202.716 201.501 202.716 200.653V196.519C202.738 196.053 202.87 195.599 203.101 195.194C203.332 194.789 203.656 194.444 204.047 194.189Z" fill="#BDABFF"/>
<path d="M198.446 208.245L213.231 199.73C213.688 199.467 214.078 199.654 214.078 200.153C214.054 200.434 213.965 200.705 213.818 200.944C213.671 201.184 213.47 201.386 213.231 201.534L198.446 210.066C197.989 210.329 197.599 210.143 197.599 209.643C197.62 209.36 197.708 209.085 197.855 208.842C198.002 208.599 198.205 208.395 198.446 208.245Z" fill="#455A64"/>
<path d="M158.676 234.747L173.46 226.215C173.918 225.944 174.308 226.139 174.308 226.63C174.285 226.912 174.197 227.185 174.049 227.426C173.902 227.668 173.7 227.871 173.46 228.02L158.676 236.552C158.218 236.815 157.828 236.628 157.828 236.128C157.85 235.847 157.938 235.576 158.086 235.336C158.233 235.096 158.435 234.894 158.676 234.747Z" fill="#455A64"/>
<path d="M178.561 223.258L193.346 214.726C193.803 214.455 194.193 214.65 194.193 215.142C194.171 215.422 194.083 215.694 193.936 215.934C193.788 216.174 193.586 216.376 193.346 216.523L178.561 225.063C178.103 225.326 177.714 225.139 177.714 224.639C177.735 224.359 177.824 224.087 177.971 223.847C178.118 223.607 178.32 223.405 178.561 223.258Z" fill="#455A64"/>
<path d="M198.446 211.769L213.231 203.237C213.688 202.966 214.078 203.161 214.078 203.653C214.056 203.933 213.968 204.205 213.821 204.445C213.674 204.685 213.471 204.887 213.231 205.034L198.446 213.574C197.989 213.837 197.599 213.65 197.599 213.15C197.621 212.87 197.709 212.598 197.856 212.358C198.003 212.118 198.206 211.916 198.446 211.769Z" fill="#455A64"/>
<path d="M158.676 238.272L173.46 229.731C173.918 229.469 174.308 229.655 174.308 230.155C174.286 230.436 174.198 230.708 174.05 230.948C173.903 231.188 173.701 231.389 173.46 231.536L158.676 240.077C158.218 240.339 157.828 240.153 157.828 239.653C157.85 239.372 157.938 239.1 158.086 238.86C158.233 238.62 158.435 238.419 158.676 238.272Z" fill="#455A64"/>
<path d="M178.561 226.783L193.346 218.243C193.803 217.98 194.193 218.166 194.193 218.666C194.171 218.947 194.083 219.219 193.936 219.459C193.788 219.699 193.586 219.901 193.346 220.047L178.561 228.579C178.103 228.85 177.714 228.664 177.714 228.164C177.735 227.883 177.824 227.612 177.971 227.371C178.118 227.131 178.32 226.93 178.561 226.783Z" fill="#455A64"/>
<path d="M198.446 215.294L213.231 206.754C213.688 206.491 214.078 206.677 214.078 207.177C214.056 207.458 213.968 207.73 213.821 207.97C213.674 208.21 213.471 208.412 213.231 208.558L198.446 217.09C197.989 217.361 197.599 217.167 197.599 216.675C197.621 216.394 197.709 216.123 197.856 215.883C198.003 215.642 198.206 215.441 198.446 215.294Z" fill="#455A64"/>
<path d="M125.175 87.1963C133.817 82.2059 140.824 86.2558 140.824 96.2366C140.824 106.217 133.817 118.359 125.175 123.349C116.533 128.339 109.517 124.289 109.517 114.309C109.517 104.328 116.524 92.1866 125.175 87.1963Z" fill="#E0E0E0"/>
<path d="M125.175 95.0588C127.979 93.4321 130.258 94.7453 130.258 97.9904C130.163 99.7529 129.652 101.468 128.769 102.996C127.886 104.524 126.654 105.822 125.175 106.785C122.37 108.403 120.091 107.09 120.091 103.853C120.187 102.091 120.697 100.376 121.58 98.8477C122.464 97.3196 123.695 96.0214 125.175 95.0588Z" fill="#FAFAFA"/>
<path d="M135.071 112.326C135.071 107.005 131.334 104.845 126.725 107.505L123.845 109.2C119.235 111.86 115.507 118.333 115.507 123.654V125.086C118.168 125.933 121.523 125.493 125.175 123.391C129.178 120.925 132.563 117.575 135.071 113.597V112.326Z" fill="#FAFAFA"/>
<path d="M115.906 149.055L137.562 136.549C138.477 136.024 139.256 136.397 139.256 137.397C139.211 137.958 139.033 138.5 138.739 138.98C138.445 139.46 138.041 139.864 137.562 140.159L115.906 152.664C114.982 153.19 114.211 152.817 114.211 151.817C114.256 151.256 114.433 150.713 114.728 150.233C115.022 149.753 115.426 149.349 115.906 149.055Z" fill="#E0E0E0"/>
</svg>
